<svg width="43" height="43" viewBox="0 0 43 43" fill="none" xmlns="http://www.w3.org/2000/svg">
<circle cx="21.8402" cy="21.149" r="20.6453" fill="white" stroke="#CBD0DC" stroke-width="0.897623"/>
<path d="M17.9354 27.4633H16.2837C13.7547 27.2826 12.6192 25.3385 12.6192 23.6095C12.6192 21.8804 13.7547 19.9277 16.2407 19.7557C16.5934 19.7213 16.9031 19.9965 16.9289 20.3578C16.9547 20.7105 16.6881 21.0202 16.3268 21.046C14.6579 21.1665 13.9095 22.4224 13.9095 23.6181C13.9095 24.8138 14.6579 26.0697 16.3268 26.1902H17.9354C18.2881 26.1902 18.5805 26.4826 18.5805 26.8353C18.5805 27.188 18.2881 27.4633 17.9354 27.4633Z" fill="#292D32"/>
<path d="M25.8557 27.4633C25.8385 27.4633 25.8299 27.4633 25.8127 27.4633C25.46 27.4633 25.1331 27.1708 25.1331 26.8181C25.1331 26.4482 25.4084 26.173 25.7697 26.173C26.8278 26.173 27.774 25.8031 28.5138 25.1407C29.8558 23.9708 29.9418 22.2848 29.5805 21.0977C29.2192 19.9192 28.2127 18.5686 26.4579 18.3536C26.174 18.3191 25.9503 18.1041 25.8987 17.8202C25.5546 15.7557 24.445 14.3277 22.7589 13.8116C21.0213 13.2696 18.9911 13.803 17.7266 15.1277C16.4965 16.4095 16.2126 18.2073 16.9266 20.1858C17.047 20.5213 16.875 20.8912 16.5395 21.0116C16.204 21.1321 15.8341 20.96 15.7137 20.6245C14.8449 18.1987 15.2406 15.8761 16.7976 14.2417C18.389 12.5729 20.9439 11.9105 23.1374 12.5815C25.1503 13.2008 26.5697 14.861 27.0858 17.1664C28.8407 17.5621 30.2515 18.8955 30.8106 20.7364C31.4214 22.7407 30.8708 24.8052 29.3654 26.1128C28.4106 26.973 27.1632 27.4633 25.8557 27.4633Z" fill="#292D32"/>
<path d="M21.8389 29.9923C20.1098 29.9923 18.4926 29.0718 17.6066 27.5837C17.512 27.4374 17.4173 27.2654 17.3399 27.0761C17.0474 26.4654 16.8926 25.7686 16.8926 25.046C16.8926 22.3191 19.112 20.0997 21.8389 20.0997C24.5658 20.0997 26.7851 22.3191 26.7851 25.046C26.7851 25.7772 26.6303 26.4654 26.3206 27.1019C26.2518 27.2654 26.1572 27.4374 26.054 27.6009C25.1851 29.0719 23.5679 29.9923 21.8389 29.9923ZM21.8389 21.3901C19.8259 21.3901 18.1829 23.0331 18.1829 25.046C18.1829 25.5793 18.2947 26.0783 18.5098 26.5342C18.5786 26.6804 18.6388 26.8009 18.7076 26.9127C19.3614 28.0224 20.5571 28.702 21.8302 28.702C23.1034 28.702 24.2991 28.0224 24.9442 26.9299C25.0217 26.8009 25.0905 26.6804 25.1421 26.56C25.3744 26.0869 25.4862 25.5879 25.4862 25.0546C25.4948 23.0331 23.8518 21.3901 21.8389 21.3901Z" fill="#292D32"/>
<path d="M21.3501 26.5428C21.1867 26.5428 21.0233 26.4826 20.8942 26.3535L20.0426 25.5019C19.7931 25.2524 19.7931 24.8395 20.0426 24.5901C20.292 24.3406 20.7049 24.3406 20.9544 24.5901L21.3673 25.003L22.7437 23.7298C23.0103 23.489 23.4147 23.5062 23.6555 23.7642C23.8964 24.0223 23.8792 24.4352 23.6211 24.6761L21.7888 26.3707C21.6598 26.4826 21.505 26.5428 21.3501 26.5428Z" fill="#292D32"/>
</svg>
