<svg width="24" height="24" viewBox="0 0 24 24" fill="none" xmlns="http://www.w3.org/2000/svg">
<circle cx="12" cy="12" r="11.5" fill="white" stroke="#EEEEEE"/>
<path d="M18.169 8.26881C17.1628 8.16881 16.1565 8.09381 15.144 8.03756V8.03131L15.0065 7.21881C14.9128 6.64381 14.7753 5.78131 13.3128 5.78131H11.6753C10.219 5.78131 10.0815 6.60631 9.98153 7.21256L9.85028 8.01256C9.26903 8.05006 8.68778 8.08756 8.10653 8.14381L6.83153 8.26881C6.56903 8.29381 6.38153 8.52506 6.40653 8.78131C6.43153 9.03756 6.65653 9.22506 6.91903 9.20006L8.19403 9.07506C11.469 8.75006 14.769 8.87506 18.0815 9.20631C18.1003 9.20631 18.1128 9.20631 18.1315 9.20631C18.369 9.20631 18.5753 9.02506 18.6003 8.78131C18.619 8.52506 18.4315 8.29381 18.169 8.26881Z" fill="#2C2C2C"/>
<path d="M17.0208 10.0875C16.8708 9.93125 16.6645 9.84375 16.452 9.84375H8.55204C8.33954 9.84375 8.12704 9.93125 7.98329 10.0875C7.83954 10.2438 7.75829 10.4562 7.77079 10.675L8.15829 17.0875C8.22704 18.0375 8.31454 19.225 10.4958 19.225H14.5083C16.6895 19.225 16.777 18.0437 16.8458 17.0875L17.2333 10.6813C17.2458 10.4563 17.1645 10.2438 17.0208 10.0875ZM13.5395 16.0937H11.4583C11.202 16.0937 10.9895 15.8812 10.9895 15.625C10.9895 15.3687 11.202 15.1562 11.4583 15.1562H13.5395C13.7958 15.1562 14.0083 15.3687 14.0083 15.625C14.0083 15.8812 13.7958 16.0937 13.5395 16.0937ZM14.0645 13.5937H10.9395C10.6833 13.5937 10.4708 13.3812 10.4708 13.125C10.4708 12.8687 10.6833 12.6562 10.9395 12.6562H14.0645C14.3208 12.6562 14.5333 12.8687 14.5333 13.125C14.5333 13.3812 14.3208 13.5937 14.0645 13.5937Z" fill="#2C2C2C"/>
</svg>
