<svg width="26" height="28" viewBox="0 0 26 28" fill="none" xmlns="http://www.w3.org/2000/svg">
<g clip-path="url(#clip0_718_1115)">
<path fill-rule="evenodd" clip-rule="evenodd" d="M2.33203 0C1.77975 0 1.33203 0.447715 1.33203 1V27C1.33203 27.5523 1.77975 28 2.33203 28H23.6654C24.2176 28 24.6654 27.5523 24.6654 27V4.66667L19.9987 0H2.33203Z" fill="#E9F0FA"/>
<path fill-rule="evenodd" clip-rule="evenodd" d="M19.998 0V4.66667H24.6647L19.998 0Z" fill="#C2CDDE"/>
</g>
<rect x="0.166016" y="11.6666" width="25.6667" height="11.6667" rx="1" fill="#F14848"/>
<path d="M5.75746 20.5V14.6818H7.93928C8.38625 14.6818 8.76125 14.7652 9.06428 14.9318C9.3692 15.0985 9.59931 15.3277 9.75462 15.6193C9.91181 15.9091 9.99041 16.2386 9.99041 16.608C9.99041 16.9811 9.91181 17.3125 9.75462 17.6023C9.59742 17.892 9.36541 18.1203 9.05859 18.2869C8.75178 18.4517 8.37393 18.5341 7.92507 18.5341H6.47905V17.6676H7.78303C8.04439 17.6676 8.2584 17.6222 8.42507 17.5312C8.59174 17.4403 8.71484 17.3153 8.79439 17.1562C8.87583 16.9972 8.91655 16.8144 8.91655 16.608C8.91655 16.4015 8.87583 16.2197 8.79439 16.0625C8.71484 15.9053 8.59079 15.7831 8.42223 15.696C8.25556 15.607 8.0406 15.5625 7.77734 15.5625H6.81143V20.5H5.75746ZM12.8775 20.5H10.9059V14.6818H12.9173C13.4949 14.6818 13.9911 14.7983 14.4059 15.0312C14.8226 15.2623 15.1426 15.5947 15.3661 16.0284C15.5896 16.4621 15.7013 16.9811 15.7013 17.5852C15.7013 18.1913 15.5887 18.7121 15.3633 19.1477C15.1398 19.5833 14.8169 19.9176 14.3945 20.1506C13.9741 20.3835 13.4684 20.5 12.8775 20.5ZM11.9599 19.5881H12.8263C13.2317 19.5881 13.5697 19.5142 13.8406 19.3665C14.1114 19.2169 14.315 18.9943 14.4513 18.6989C14.5877 18.4015 14.6559 18.0303 14.6559 17.5852C14.6559 17.1402 14.5877 16.7708 14.4513 16.4773C14.315 16.1818 14.1133 15.9612 13.8462 15.8153C13.5811 15.6676 13.2515 15.5938 12.8576 15.5938H11.9599V19.5881ZM16.7028 20.5V14.6818H20.43V15.5653H17.7567V17.1449H20.1744V18.0284H17.7567V20.5H16.7028Z" fill="white"/>
<defs>
<clipPath id="clip0_718_1115">
<rect width="23.3333" height="28" fill="white" transform="translate(1.33203)"/>
</clipPath>
</defs>
</svg>
