<svg width="20" height="20" viewBox="0 0 20 20" fill="none" xmlns="http://www.w3.org/2000/svg">
<path d="M14.1668 11.1667V13.6667C14.1668 17 12.8335 18.3334 9.50014 18.3334H6.33348C3.00014 18.3334 1.66681 17 1.66681 13.6667V10.5C1.66681 7.16671 3.00014 5.83337 6.33348 5.83337H8.83348" stroke="#292D32" stroke-width="1.5" stroke-linecap="round" stroke-linejoin="round"/>
<path d="M14.1668 11.1667H11.5001C9.50012 11.1667 8.83345 10.5 8.83345 8.50004V5.83337L14.1668 11.1667Z" stroke="#292D32" stroke-width="1.5" stroke-linecap="round" stroke-linejoin="round"/>
<path d="M9.66664 1.66663H13" stroke="#292D32" stroke-width="1.5" stroke-linecap="round" stroke-linejoin="round"/>
<path d="M5.83319 4.16663C5.83319 2.78329 6.94986 1.66663 8.33319 1.66663H10.5165" stroke="#292D32" stroke-width="1.5" stroke-linecap="round" stroke-linejoin="round"/>
<path d="M18.3333 6.66663V11.825C18.3333 13.1166 17.2833 14.1666 15.9917 14.1666" stroke="#292D32" stroke-width="1.5" stroke-linecap="round" stroke-linejoin="round"/>
<path d="M18.3332 6.66663H15.8332C13.9582 6.66663 13.3332 6.04163 13.3332 4.16663V1.66663L18.3332 6.66663Z" stroke="#292D32" stroke-width="1.5" stroke-linecap="round" stroke-linejoin="round"/>
</svg>
