<svg width="20" height="20" viewBox="0 0 20 20" fill="none" xmlns="http://www.w3.org/2000/svg">
<path d="M17.5 4.98332C14.725 4.70832 11.9333 4.56665 9.15 4.56665C7.5 4.56665 5.85 4.64998 4.2 4.81665L2.5 4.98332" stroke="#292D32" stroke-width="1.5" stroke-linecap="round" stroke-linejoin="round"/>
<path d="M7.08333 4.14163L7.26666 3.04996C7.4 2.25829 7.49999 1.66663 8.90833 1.66663H11.0917C12.5 1.66663 12.6083 2.29163 12.7333 3.05829L12.9167 4.14163" stroke="#292D32" stroke-width="1.5" stroke-linecap="round" stroke-linejoin="round"/>
<path d="M15.7082 7.6167L15.1666 16.0084C15.0749 17.3167 14.9999 18.3334 12.6749 18.3334H7.32491C4.99991 18.3334 4.92491 17.3167 4.83325 16.0084L4.29158 7.6167" stroke="#292D32" stroke-width="1.5" stroke-linecap="round" stroke-linejoin="round"/>
<path d="M8.6084 13.75H11.3834" stroke="#292D32" stroke-width="1.5" stroke-linecap="round" stroke-linejoin="round"/>
<path d="M7.91667 10.4166H12.0833" stroke="#292D32" stroke-width="1.5" stroke-linecap="round" stroke-linejoin="round"/>
</svg>
